# xmcd CD database file
#
# Track frame offsets:
#	150
#	25658
#	55367
#	89598
#	109907
#	131614
#	159522
#	183725
#
# Disc length: 2697 seconds
#
# Revision: 0
# Processed by: cddbd v1.5.1PL0 Copyright (c) Steve Scherf et al.
# Submitted via: CDex 1.50beta10
#
DISCID=6b0a8708
DTITLE=Orquesta Sensacion - Cuba y Puerto Rico son de un pajaro las dos alas
DYEAR=2002
DGENRE=Salsa
TTITLE0=Pa' Puerto Rico
TTITLE1=Lola
TTITLE2=A pesar de los años
TTITLE3=Son pa' los pregoneros
TTITLE4=Amor no se llama
TTITLE5=Piel Canela
TTITLE6=Onan'ide
TTITLE7=Paquito El Rareza
EXTD=YEAR: 2002
EXTT0=
EXTT1=
EXTT2=
EXTT3=
EXTT4=
EXTT5=
EXTT6=
EXTT7=
PLAYORDER=
